<?xml version="1.0" standalone="no"?>
<!DOCTYPE svg PUBLIC "-//W3C//DTD SVG 20010904//EN"
 "http://www.w3.org/TR/2001/REC-SVG-20010904/DTD/svg10.dtd">
<svg version="1.0" xmlns="http://www.w3.org/2000/svg"
 width="672.000000pt" height="1520.000000pt" viewBox="0 0 672.000000 1520.000000"
 preserveAspectRatio="xMidYMid meet">

<g transform="translate(0.000000,1520.000000) scale(0.100000,-0.100000)"
fill="#000000" stroke="none">
<path d="M0 14860 l0 -340 88 -1 c48 0 985 0 2082 0 1097 1 2570 1 3273 1
l1277 0 0 340 0 340 -3360 0 -3360 0 0 -340z"/>
<path d="M3635 7180 c3 -5 8 -10 11 -10 2 0 4 5 4 10 0 6 -5 10 -11 10 -5 0
-7 -4 -4 -10z"/>
<path d="M2673 6725 c0 -44 2 -61 4 -37 2 23 2 59 0 80 -2 20 -4 1 -4 -43z"/>
<path d="M3293 6725 c0 -44 2 -61 4 -37 2 23 2 59 0 80 -2 20 -4 1 -4 -43z"/>
<path d="M2193 6773 c-4 -11 3 -23 21 -38 28 -23 26 -35 -8 -35 -17 0 -18 -2
-6 -10 20 -13 26 -12 44 6 23 22 20 31 -14 49 -37 19 -38 32 -2 38 l27 4 -28
2 c-18 0 -30 -5 -34 -16z"/>
<path d="M2303 6735 c0 -33 2 -47 4 -31 l5 28 29 -28 c31 -30 39 -22 14 14
-14 19 -14 24 1 47 9 14 12 25 8 25 -5 0 -15 -9 -22 -20 -16 -26 -30 -25 -35
3 -2 12 -4 -5 -4 -38z"/>
<path d="M2410 6741 c0 -28 5 -53 10 -56 6 -4 10 15 10 49 0 31 -4 56 -10 56
-5 0 -10 -22 -10 -49z"/>
<path d="M2480 6740 c0 -30 4 -50 11 -50 7 0 9 10 7 25 -8 40 8 39 32 -3 21
-33 23 -35 31 -17 11 29 11 95 -1 95 -5 0 -10 -17 -10 -37 l0 -38 -25 38 c-14
20 -30 37 -35 37 -6 0 -10 -22 -10 -50z"/>
<path d="M2790 6740 c0 -27 5 -50 10 -50 6 0 10 9 10 20 0 15 7 20 25 20 20 0
25 -5 25 -26 0 -14 4 -23 10 -19 6 3 10 26 10 50 0 24 -4 47 -10 50 -5 3 -10
-3 -10 -14 0 -16 -6 -21 -25 -21 -18 0 -25 5 -25 20 0 11 -4 20 -10 20 -5 0
-10 -22 -10 -50z"/>
<path d="M2936 6747 c-19 -51 -20 -65 -4 -49 17 17 38 15 61 -5 19 -17 19 -17
12 6 -15 49 -35 91 -44 91 -4 0 -16 -19 -25 -43z m30 -14 c-10 -10 -19 5 -10
18 6 11 8 11 12 0 2 -7 1 -15 -2 -18z"/>
<path d="M3050 6735 c0 -30 5 -55 10 -55 6 0 10 25 10 55 0 30 -4 55 -10 55
-5 0 -10 -25 -10 -55z"/>
<path d="M3121 6733 c1 -32 4 -48 6 -35 5 25 28 30 37 7 3 -8 10 -15 16 -15 6
0 6 7 -2 19 -9 15 -9 23 1 35 18 21 -2 46 -35 46 -23 0 -24 -3 -23 -57z m45
36 c8 -14 -18 -31 -30 -19 -9 9 0 30 14 30 5 0 12 -5 16 -11z"/>
<path d="M3411 6738 c-1 -55 0 -58 24 -58 14 0 25 5 25 10 0 6 -7 10 -15 10
-9 0 -16 14 -20 38 -11 60 -13 60 -14 0z"/>
<path d="M3512 6743 c-11 -26 -18 -50 -15 -53 3 -3 8 1 10 8 7 20 63 15 64 -5
0 -12 2 -14 6 -5 6 16 -25 102 -37 102 -4 0 -17 -21 -28 -47z m42 2 c4 -10 -1
-15 -14 -15 -13 0 -18 5 -14 15 4 8 10 15 14 15 4 0 10 -7 14 -15z"/>
<path d="M3623 6774 c-4 -11 3 -23 20 -36 34 -25 34 -38 0 -38 -20 0 -24 -3
-16 -11 15 -15 44 -8 57 14 9 15 6 22 -16 38 -34 25 -35 36 -5 42 19 4 18 4
-6 6 -17 0 -30 -5 -34 -15z"/>
<path d="M3732 6738 c3 -49 5 -53 31 -56 15 -2 27 1 27 7 0 6 -9 11 -20 11
-27 0 -25 26 3 35 l22 8 -22 4 c-13 2 -23 11 -23 18 0 7 10 16 23 18 15 3 12
5 -11 6 l-33 1 3 -52z"/>
<path d="M3841 6733 c1 -32 4 -48 6 -35 5 28 24 28 41 1 17 -26 28 -18 13 10
-7 13 -8 22 -1 26 16 10 12 42 -6 49 -45 17 -54 9 -53 -51z m45 36 c10 -17
-13 -36 -27 -22 -12 12 -4 33 11 33 5 0 12 -5 16 -11z"/>
<path d="M4130 6740 c0 -49 1 -50 29 -50 33 0 61 23 61 49 0 25 -32 51 -63 51
-26 0 -27 -2 -27 -50z m58 28 c18 -18 14 -46 -7 -58 -30 -16 -41 -12 -41 14 0
51 21 71 48 44z"/>
<path d="M4262 6738 c3 -49 5 -53 31 -56 15 -2 27 1 27 7 0 6 -9 11 -19 11
-32 0 -34 19 -4 32 27 11 27 12 6 15 -13 3 -23 11 -23 18 0 7 10 16 23 18 15
3 12 5 -11 6 l-33 1 3 -52z"/>
<path d="M4371 6738 c2 -52 2 -52 8 -13 l6 40 17 -31 c9 -17 24 -36 32 -43 14
-12 16 -7 15 45 -2 54 -2 55 -8 19 l-6 -40 -23 38 c-13 20 -28 37 -33 37 -5 0
-8 -24 -8 -52z"/>
<path d="M4503 6783 c13 -3 17 -15 17 -49 0 -24 5 -44 10 -44 6 0 10 20 10 44
0 34 4 46 18 49 9 3 -3 5 -28 5 -25 0 -37 -2 -27 -5z"/>
<path d="M4620 6744 c-23 -52 -26 -77 -6 -51 7 9 23 17 34 17 12 0 26 -8 31
-17 8 -14 10 -14 11 -3 0 23 -32 100 -42 100 -5 0 -18 -21 -28 -46z m40 1 c0
-8 -7 -15 -15 -15 -9 0 -12 6 -9 15 4 8 10 15 15 15 5 0 9 -7 9 -15z"/>
<path d="M4730 6741 c0 -35 4 -51 16 -55 24 -9 44 -7 44 4 0 6 -9 10 -20 10
-17 0 -20 7 -20 45 0 25 -4 45 -10 45 -5 0 -10 -22 -10 -49z"/>
<path d="M4013 6705 c0 -33 2 -45 4 -27 2 18 2 45 0 60 -2 15 -4 0 -4 -33z"/>
<path d="M0 610 l0 -610 3360 0 3360 0 0 610 0 610 -3360 0 -3360 0 0 -610z"/>
</g>
</svg>
